<?xml version="1.0" standalone="no"?>
<!DOCTYPE svg PUBLIC "-//W3C//DTD SVG 1.1//EN" "http://www.w3.org/Graphics/SVG/1.1/DTD/svg11.dtd">
<!--Generator: Xara Designer (www.xara.com), SVG filter version: 6.3.0.4-->
<svg stroke-width="0.501" stroke-linejoin="bevel" fill-rule="evenodd" xmlns:xlink="http://www.w3.org/1999/xlink" xmlns="http://www.w3.org/2000/svg" version="1.1" overflow="visible" width="275.416pt" height="250.742pt" viewBox="0 0 275.416 250.742">
 <defs>
	</defs>
 <g id="Document" fill="none" stroke="black" font-family="Times New Roman" font-size="16" transform="scale(1 -1)">
  <g id="Spread" transform="translate(0 -250.742)">
   <g id="Layer 1">
    <path d="M 197.019,246.534 C 184.189,249.931 162.986,231.224 132.523,232.648 C 102.153,234.047 62.615,255.549 34.974,249.753 C 7.335,243.959 -8.407,210.868 4.671,185.933 C 17.718,161.058 59.617,144.278 77.748,116.387 C 95.847,88.553 90.242,49.486 104.078,26.836 C 117.913,4.182 151.134,-2.088 185.476,0.572 C 219.846,3.327 255.244,15.04 268.672,40.093 C 282.036,65.111 273.393,103.53 261.333,131.126 C 249.329,158.753 234.06,175.564 224.181,196.674 C 214.303,217.785 209.851,243.137 197.019,246.534 Z" stroke="none" fill="#ffffff" stroke-width="0.68" fill-rule="evenodd" stroke-linejoin="miter" marker-start="none" marker-end="none" stroke-miterlimit="79.8403193612775"/>
   </g>
  </g>
 </g>
</svg>
